<svg xmlns="http://www.w3.org/2000/svg" width="512" height="512" viewBox="0 0 512 512">
  <rect x="0" y="0" width="512" height="512" rx="112.64" fill="#6e1f2e"/>
  <g transform="translate(100.68,391.97) scale(0.194518,-0.194518)">
    <path d="M794 1436Q959 1436 1092.0 1381.5Q1225 1327 1319.5 1227.5Q1414 1128 1465.0 992.0Q1516 856 1516 691Q1516 534 1465.5 401.0Q1415 268 1320.5 169.5Q1226 71 1094.0 16.5Q962 -38 800 -38Q637 -38 504.5 16.5Q372 71 277.0 170.5Q182 270 131.5 406.5Q81 543 81 708Q81 864 131.0 997.0Q181 1130 275.0 1228.5Q369 1327 500.5 1381.5Q632 1436 794 1436ZM1197 513Q1197 646 1172.5 767.5Q1148 889 1104.0 991.0Q1060 1093 1001.0 1169.0Q942 1245 872.5 1287.0Q803 1329 728 1329Q629 1329 556.0 1276.0Q483 1223 443.0 1124.0Q403 1025 403 885Q403 752 427.5 630.0Q452 508 495.5 406.0Q539 304 598.0 228.0Q657 152 726.0 109.5Q795 67 870 67Q970 67 1043.0 120.0Q1116 173 1156.5 273.0Q1197 373 1197 513Z" fill="#f3e9d3"/>
  </g>
</svg>
